<?xml version="1.0" encoding="UTF-8"?>
<svg width="50px" height="50px" viewBox="0 0 50 50" version="1.1" xmlns="http://www.w3.org/2000/svg" xmlns:xlink="http://www.w3.org/1999/xlink">
    <!-- Generator: Sketch 41.2 (35397) - http://www.bohemiancoding.com/sketch -->
    <title>open_logo_pixel_black_ru</title>
    <desc>Created with Sketch.</desc>
    <defs></defs>
    <g id="Page-1" stroke="none" stroke-width="1" fill="none" fill-rule="evenodd">
        <g id="open_logo_pixel_black_ru">
            <g id="Group-3">
                <path d="M23.5,2 C10.5607287,2 0,12.465587 0,25.5 C0,38.4392713 10.465587,49 23.5,49 C36.4392713,49 47,38.534413 47,25.5 C47,12.465587 36.4392713,2 23.5,2 L23.5,2 Z M18.9082639,38.512 C19.0881471,39.088 18.9937084,39.664 18.7103925,40.144 C18.3326379,40.72 17.766006,41.008 16.9235533,41 C16.6327422,41.008 16.2549876,40.912 15.877233,40.72 L14.7439692,40.24 C10.0220368,37.648 7,32.464 7,26 L7,24 C7,18.544 9.92759812,13.36 14.7439692,10.768 L15.7827943,10.288 C16.1605489,10.096 16.5383035,10 16.9235533,10 C17.6715673,10 18.2381992,10.288 18.6159538,10.864 C18.8992698,11.344 18.9937084,11.824 18.9082639,12.496 C18.7103925,13.456 17.8604446,13.84 17.9159086,13.84 C15.1217238,15.088 13.3273895,18.064 13,21.232 L13,29.68 C13.4218281,33.04 15.2161625,35.92 17.9159086,37 C18.2381992,37.264 18.8992698,37.648 18.9082639,38.512 Z M39.9963757,26.546972 C40.1179576,32.431677 37.1728481,37.6304348 32.327668,40.2298137 L31.1876256,40.7111801 C30.8076115,40.9037267 30.4275974,41 30.0475832,41 C29.287555,41 28.7175338,40.7111801 28.3375197,40.0854037 C28.0525091,39.6521739 27.9575055,39.1708075 28.0168827,38.5811335 C28.2425161,37.6304348 28.8125373,37.2453416 29.0151738,37.0768634 C31.8526503,35.8975155 33.6577174,32.9130435 34,29.7360248 L34,21.2639752 C33.6577174,17.9906832 31.8526503,15.1024845 29.0151738,13.8509317 C29.0975479,13.8509317 28.2425161,13.4658385 28.0168827,12.5031056 C27.9575055,11.9254658 28.0525091,11.3478261 28.3375197,10.8664596 C28.7175338,10.2888199 29.287555,10 30.0134649,10 C30.4275974,10 30.8076115,10.0962733 31.1876256,10.2888199 L32.2326645,10.7701863 C37.0778446,13.3695652 40.0229541,18.568323 39.9963757,24.0398551 L39.9963757,26.546972 Z" id="Shape-Copy-2" fill="#09B9E2"></path>
            </g>
        </g>
    </g>
</svg>